<svg xmlns="http://www.w3.org/2000/svg" viewBox="0 0 212.94 75.73"><defs><style>.cls-1{fill:#fff;}</style></defs><g id="Layer_2" data-name="Layer 2"><g id="page_01" data-name="page 01"><g id="header"><g id="Layer_36" data-name="Layer 36"><path class="cls-1" d="M29,19.79h4a.47.47,0,1,0,0-.94H29a.47.47,0,1,0,0,.94Zm2,34.9a2.07,2.07,0,1,0,2.07,2.07A2.07,2.07,0,0,0,31,54.69ZM20.86,52.91H41.18v-30H20.86ZM86,43a4,4,0,0,0-2.62,1,4.45,4.45,0,0,0-1.54,2.52,5.2,5.2,0,0,0-.18,1.2v2.92a4.74,4.74,0,0,0,1.17,3.25,4,4,0,0,0,3.06,1.31,4,4,0,0,0,3.44-1.7A7.48,7.48,0,0,0,90.57,49a7.25,7.25,0,0,0-1.15-4.23A4,4,0,0,0,86,43Zm71.26-.24a3.89,3.89,0,0,0-3.57,2.09,7.86,7.86,0,0,0-1.06,4.21,7.74,7.74,0,0,0,1.06,4.15,4,4,0,0,0,7,0A7.74,7.74,0,0,0,161.84,49a7.94,7.94,0,0,0-1-4.15A3.88,3.88,0,0,0,157.28,42.8ZM105.34,43a4,4,0,0,0-2.62,1,4.45,4.45,0,0,0-1.54,2.52,5.2,5.2,0,0,0-.18,1.2v2.92a4.69,4.69,0,0,0,1.17,3.25,3.91,3.91,0,0,0,3,1.31,4,4,0,0,0,3.45-1.7A7.49,7.49,0,0,0,109.9,49a7.26,7.26,0,0,0-1.16-4.23A4,4,0,0,0,105.34,43ZM65,36.75H64.9c-.25,1-.63,2.57-1.16,4.6l-2,6.36h6.55L66.2,41.35C66,40.69,65.57,39.16,65,36.75Zm121.94,5.86a3.74,3.74,0,0,0-3.11,1.6,5.8,5.8,0,0,0-1.16,3h8.14a5.42,5.42,0,0,0-.75-3A3.44,3.44,0,0,0,186.91,42.61ZM82.2,25.26a1.77,1.77,0,0,0,0-.51V23.51c-1.62,0-3.16.32-3.16,1.69a1.2,1.2,0,0,0,1.3,1.3A1.89,1.89,0,0,0,82.2,25.26ZM60.88,19.57c-.25-.77-.45-1.62-.64-2.35h0c-.19.73-.39,1.6-.6,2.35l-1,3.08h3.21Zm129.64-.9c2.94,0,3.9,2.42,3.9,4.41a5.43,5.43,0,0,1-.07,1h-6.06c.05,1.63,1.32,2.34,2.79,2.34a7.11,7.11,0,0,0,2.51-.41l.33,1.57a8.23,8.23,0,0,1-3.16.57,4.28,4.28,0,0,1-4.67-4.57C186.09,21,187.62,18.67,190.52,18.67Zm-36.29.21.11,1.36h0a3.33,3.33,0,0,1,2.9-1.57c1.58,0,3.22,1,3.22,3.89v5.38h-2.29V22.82c0-1.3-.48-2.29-1.73-2.29a1.92,1.92,0,0,0-1.78,1.34,2,2,0,0,0-.11.73v5.34h-2.29V21.58c0-1,0-1.92-.07-2.7Zm-24-.21c2.94,0,3.9,2.42,3.9,4.41a5.43,5.43,0,0,1-.07,1H128c0,1.63,1.32,2.34,2.79,2.34a7.11,7.11,0,0,0,2.51-.41l.33,1.57a8.23,8.23,0,0,1-3.16.57,4.28,4.28,0,0,1-4.67-4.57C125.78,21,127.31,18.67,130.21,18.67Zm-9.38-3.94h2.29V27.94h-2.29ZM102.7,20.29a4.79,4.79,0,0,0-2.44.67l-.45-1.49a6.62,6.62,0,0,1,3.28-.8c2.9,0,3.73,1.85,3.73,3.83v3.26a12.41,12.41,0,0,0,.15,2.18h-2.06l-.17-1h0A3.31,3.31,0,0,1,102,28.14a2.69,2.69,0,0,1-2.85-2.7c0-2.27,2-3.44,5.38-3.42v-.15C104.54,21.28,104.29,20.29,102.7,20.29ZM89.17,15.1a1.24,1.24,0,1,1,0,2.48,1.24,1.24,0,1,1,0-2.48Zm1.14,3.78v9.06H88V18.88ZM58.85,15.4h2.92l4.07,12.54H63.37l-1.14-3.56h-4l-1.08,3.56H54.83ZM43.62,57a4,4,0,0,1-4,4H22.44a4,4,0,0,1-4-4V18.8a4,4,0,0,1,4-4H39.61a4,4,0,0,1,4,4Zm27.61.92L69,50.72H61l-2.17,7.16H54.8L62.65,33.5H67.5l7.89,24.38Zm.88-29.94H69.86L66.5,18.88H69l1.47,4.59c.26.8.44,1.53.61,2.27h.06c.17-.74.37-1.45.61-2.27l1.45-4.59h2.4Zm4.71-2.5c0-2.27,2-3.44,5.38-3.42v-.15c0-.59-.25-1.58-1.85-1.58a4.78,4.78,0,0,0-2.43.67l-.45-1.49a6.61,6.61,0,0,1,3.27-.8c2.9,0,3.74,1.85,3.74,3.83v3.26a12.41,12.41,0,0,0,.15,2.18H82.57l-.17-1h-.06a3.29,3.29,0,0,1-2.67,1.21A2.69,2.69,0,0,1,76.82,25.44ZM92.12,56a7.17,7.17,0,0,1-5.42,2.3,5.42,5.42,0,0,1-5-2.5V65h-3.9V46.07c0-1.88,0-3.8-.15-5.78h3.43l.22,2.79h.07a7,7,0,0,1,11.13-.68,9.72,9.72,0,0,1,2.08,6.47A10,10,0,0,1,92.12,56Zm4.06-28H93.9V14.73h2.28Zm15.25,28a7.17,7.17,0,0,1-5.42,2.3,5.4,5.4,0,0,1-5-2.5V65H97.09V46.07c0-1.88,0-3.8-.14-5.78h3.42l.23,2.79h.07a7,7,0,0,1,11.12-.68,9.67,9.67,0,0,1,2.09,6.47A10,10,0,0,1,111.43,56Zm2.69-27.83a3.13,3.13,0,0,1-2.87-1.56h0l-.12,1.36h-1.95c0-.62.08-1.62.08-2.55V14.73h2.28v5.39h0a3.28,3.28,0,0,1,2.9-1.45c2.21,0,3.79,1.85,3.78,4.6C118.23,26.52,116.16,28.14,114.12,28.14Zm19.66,28a9.58,9.58,0,0,1-6.64,2.13,11.64,11.64,0,0,1-6.32-1.51l.91-3.26A10.88,10.88,0,0,0,127.36,55a5.34,5.34,0,0,0,3.44-1A3.25,3.25,0,0,0,132,51.32a3.42,3.42,0,0,0-1-2.49A9.69,9.69,0,0,0,127.66,47q-6.41-2.39-6.4-7a6.15,6.15,0,0,1,2.25-4.92,9,9,0,0,1,6-1.91A11.9,11.9,0,0,1,135,34.29l-1,3.18a9.69,9.69,0,0,0-4.68-1.12,4.86,4.86,0,0,0-3.23,1,2.93,2.93,0,0,0-1,2.21,3.05,3.05,0,0,0,1.12,2.4,13,13,0,0,0,3.55,1.87,11.87,11.87,0,0,1,4.63,3A6.18,6.18,0,0,1,135.94,51,6.49,6.49,0,0,1,133.78,56.1Zm13.77-12.88h-4.31v8.55c0,2.17.77,3.24,2.29,3.24a7,7,0,0,0,1.73-.17l.11,3a8.75,8.75,0,0,1-3,.44,4.69,4.69,0,0,1-3.62-1.41c-.88-.94-1.31-2.52-1.31-4.74V43.22h-2.56V40.29h2.56V37.08l3.83-1.16v4.37h4.31Zm-2.2-15.08a4.38,4.38,0,0,1-4.54-4.67,4.48,4.48,0,0,1,4.69-4.8,4.34,4.34,0,0,1,4.5,4.65A4.49,4.49,0,0,1,145.35,28.14ZM163.58,55.6a8.27,8.27,0,0,1-6.43,2.67A7.88,7.88,0,0,1,151,55.71a9.37,9.37,0,0,1-2.29-6.48A9.56,9.56,0,0,1,151,42.54a8.21,8.21,0,0,1,6.38-2.6,8,8,0,0,1,6.23,2.57,9.26,9.26,0,0,1,2.24,6.43A9.61,9.61,0,0,1,163.58,55.6Zm4-36.72h1.28V17.19l2.25-.64v2.33h2.18v1.71h-2.18v4c0,1.11.3,1.67,1.17,1.67a3.2,3.2,0,0,0,.9-.09l0,1.73a5,5,0,0,1-1.65.24,2.63,2.63,0,0,1-2-.74,3.58,3.58,0,0,1-.73-2.55V20.59h-1.28Zm10,24.85a7,7,0,0,0-1.23-.1,3.69,3.69,0,0,0-3.18,1.55,5.76,5.76,0,0,0-1,3.47v9.23h-3.91V45.83c0-2,0-3.86-.1-5.54h3.4l.14,3.37h.11a6,6,0,0,1,1.95-2.78,4.74,4.74,0,0,1,2.83-.94,5.74,5.74,0,0,1,1,.07Zm.59-21.23v5.44H176V14.73h2.28v5.38h0a3.11,3.11,0,0,1,1.13-1,3.26,3.26,0,0,1,1.58-.41c1.55,0,3.17,1,3.17,3.93v5.34h-2.29v-5.1c0-1.3-.49-2.31-1.75-2.31a1.92,1.92,0,0,0-1.79,1.29A2.11,2.11,0,0,0,178.24,22.5ZM194.37,50H182.64a5.11,5.11,0,0,0,1.71,4,5.77,5.77,0,0,0,3.83,1.23,12.86,12.86,0,0,0,4.74-.84l.61,2.72a14.76,14.76,0,0,1-5.9,1.08,8.51,8.51,0,0,1-6.41-2.4,8.87,8.87,0,0,1-2.34-6.46,10.07,10.07,0,0,1,2.17-6.62,7.5,7.5,0,0,1,6.15-2.82A6.53,6.53,0,0,1,193,42.72a9.47,9.47,0,0,1,1.56,5.54A9.92,9.92,0,0,1,194.37,50ZM113.61,20.46a2.13,2.13,0,0,0-2,1.67,2.56,2.56,0,0,0-.08.6V24.2a2.42,2.42,0,0,0,.06.54,2.09,2.09,0,0,0,2,1.6c1.43,0,2.3-1.14,2.3-3C115.9,21.76,115.14,20.46,113.61,20.46Zm16.47-.22a2.23,2.23,0,0,0-2.1,2.21h4A2,2,0,0,0,130.08,20.24Zm15.36.09c-1.61,0-2.26,1.58-2.26,3.09,0,1.74.87,3.07,2.25,3.07s2.21-1.27,2.21-3.11C147.64,22,147,20.33,145.44,20.33Zm-44,4.87a1.2,1.2,0,0,0,1.3,1.3,1.89,1.89,0,0,0,1.81-1.24,1.77,1.77,0,0,0,0-.51V23.51C103,23.49,101.43,23.83,101.43,25.2Zm89-5a2.23,2.23,0,0,0-2.1,2.21h4A2,2,0,0,0,190.39,20.24Z"/><path class="cls-1" d="M202.73,75.73H10.21A10.21,10.21,0,0,1,0,65.53V10.21A10.22,10.22,0,0,1,10.21,0H202.73a10.22,10.22,0,0,1,10.21,10.21V65.53A10.21,10.21,0,0,1,202.73,75.73ZM10.21,2.64a7.58,7.58,0,0,0-7.57,7.57V65.53a7.58,7.58,0,0,0,7.57,7.56H202.73a7.57,7.57,0,0,0,7.56-7.56V10.21a7.58,7.58,0,0,0-7.56-7.57Z"/></g></g></g></g></svg>