<svg xmlns="http://www.w3.org/2000/svg" viewBox="0 0 152.97 35.1"><defs><style>.cls-1{fill:#e1251b;}</style></defs><g id="Layer_2" data-name="Layer 2"><g id="page_01" data-name="page 01"><g id="footer"><g id="Layer_45" data-name="Layer 45"><path class="cls-1" d="M99.15,8.68a10.09,10.09,0,0,0-3.3,7.63v.58c0,.38,0,.71,0,1a2.87,2.87,0,0,1-.94,2.36,3.37,3.37,0,0,1-2.58.69H91.7a14.33,14.33,0,0,0-3.38-6,13.52,13.52,0,0,0-9.76-3.65H65.45A7.66,7.66,0,0,1,68,7.53a7.33,7.33,0,0,1,4.38-1.42H84V.63H72.39a14.26,14.26,0,0,0-9.76,3.85c-2.69,2.57-4,6.61-4,10.83l0,1.29h20A8.12,8.12,0,0,1,82.86,18a4.51,4.51,0,0,1,1.94,3H52.33a24.38,24.38,0,0,0,.6-6V6.09H46.09V12.8a35.63,35.63,0,0,1-.37,6.11A2.31,2.31,0,0,1,43.13,21H39.75a23.74,23.74,0,0,0,.59-6V6.09H33.5V12.8a36.66,36.66,0,0,1-.36,6.11A2.31,2.31,0,0,1,30.54,21H27.7V6.09H20.86V20.87c0,2.26.08,5.24-1.75,6.89-2.3,2.1-6.34,2-8.86.5C7.37,26.48,6.64,22.9,7,19.75a9.64,9.64,0,0,1,1-3.44L1.32,14.12A18.21,18.21,0,0,0,.19,18.37C-1.27,28.32,6,36.79,17.94,34.81l.4-.07c3.23-.66,6.3-1.87,7.86-4.88A12,12,0,0,0,27.32,27h3.22a11,11,0,0,0,2.73-.27,10.33,10.33,0,0,0,2.94-1.17,5,5,0,0,0,.69-.48V27h6.21a11.06,11.06,0,0,0,2.73-.27,9.77,9.77,0,0,0,2.92-1.17l.29-.19V27H90.91a15.35,15.35,0,0,0,4.77-.5,9.67,9.67,0,0,0,2.11-1,7.46,7.46,0,0,0,1.46-1.18,11,11,0,0,0,10.55,1.91,9.77,9.77,0,0,0,4-2.5,10.35,10.35,0,0,0,2.83-7.44,10.66,10.66,0,0,0-2.73-7.55c-3.57-3.88-11-3.82-14.74-.08m10.3,11a4.42,4.42,0,0,1-6.36,0,4.81,4.81,0,0,1-1.3-3.46,4.8,4.8,0,0,1,1.26-3.42,4.37,4.37,0,0,1,3.21-1.34,4.16,4.16,0,0,1,3.19,1.34,4.76,4.76,0,0,1,1.27,3.42,4.69,4.69,0,0,1-1.27,3.46M146.15,27H153V0h-6.82Zm-24.94,0H128V0h-6.82Zm12.47-6.16c0,2.26.08,5.24-1.73,6.89A6.31,6.31,0,0,1,129.68,29L133.74,34c.57-.21,1.15-.45,1.69-.71a8.12,8.12,0,0,0,3.63-3.5A13.13,13.13,0,0,0,140.54,23V6H133.7Z"/></g></g></g></g></svg>