<svg xmlns="http://www.w3.org/2000/svg" viewBox="0 0 52.34 66.01"><g id="Layer_2" data-name="Layer 2"><g id="page_01" data-name="page 01"><g id="Layer_9" data-name="Layer 9"><path d="M52.31,54.43l-3-37.14A4.65,4.65,0,0,0,44.75,13H38.93v-.26a12.76,12.76,0,1,0-25.52,0V13H7.59A4.65,4.65,0,0,0,3,17.28L0,54.44A10.75,10.75,0,0,0,10.75,66H41.59A10.77,10.77,0,0,0,52.31,54.43Zm-35-41.67a8.89,8.89,0,0,1,17.78,0V13H17.28ZM46.64,59.94a6.82,6.82,0,0,1-5,2.2H10.75a6.87,6.87,0,0,1-6.86-7.4L6.83,17.58a.75.75,0,0,1,.76-.69h5.82v4.76a1.94,1.94,0,0,0,3.87,0V16.89H35.06v4.76a1.94,1.94,0,0,0,3.87,0V16.89h5.82a.75.75,0,0,1,.75.7l3,37.14A6.81,6.81,0,0,1,46.64,59.94Z"/></g></g></g></svg>