<svg xmlns="http://www.w3.org/2000/svg" viewBox="0 0 57.99 57.99"><g id="Layer_2" data-name="Layer 2"><g id="page_01" data-name="page 01"><g id="Layer_9" data-name="Layer 9"><circle cx="15.63" cy="36.69" r="2.27"/><circle cx="15.63" cy="48.02" r="2.27"/><path d="M11.33,44.62h8.6a2.27,2.27,0,1,0,0-4.53h-8.6a2.27,2.27,0,1,0,0,4.53Z"/><path d="M11.33,17.89h2v2a2.27,2.27,0,1,0,4.53,0v-2h2a2.27,2.27,0,1,0,0-4.53h-2v-2a2.27,2.27,0,1,0-4.53,0v2h-2a2.27,2.27,0,1,0,0,4.53Z"/><path d="M55.72,39.87A2.27,2.27,0,0,0,58,37.6V9.06A9.07,9.07,0,0,0,48.93,0H9.06A9.06,9.06,0,0,0,0,9.06V48.93A9.07,9.07,0,0,0,9.06,58H48.93A9.08,9.08,0,0,0,58,48.93a2.27,2.27,0,1,0-4.53,0,4.55,4.55,0,0,1-4.53,4.53H31.26V31.37h22.2V37.6A2.27,2.27,0,0,0,55.72,39.87Zm-29,13.59H9.06a4.54,4.54,0,0,1-4.53-4.53V31.37h22.2Zm0-26.62H4.53V9.06A4.53,4.53,0,0,1,9.06,4.53H26.73Zm4.53,0V4.53H48.93a4.54,4.54,0,0,1,4.53,4.53V26.84Z"/><path d="M47.3,37.43a2.28,2.28,0,0,0-3.21,0l-1.74,1.74-1.74-1.74a2.27,2.27,0,1,0-3.2,3.21l1.74,1.74-1.74,1.73a2.28,2.28,0,0,0,0,3.21,2.27,2.27,0,0,0,3.2,0l1.74-1.74,1.74,1.74a2.26,2.26,0,0,0,1.6.66,2.27,2.27,0,0,0,1.61-3.87l-1.74-1.73,1.74-1.74A2.28,2.28,0,0,0,47.3,37.43Z"/><path d="M46.66,13.36H38.05a2.27,2.27,0,0,0,0,4.53h8.61a2.27,2.27,0,1,0,0-4.53Z"/></g></g></g></svg>