<svg xmlns="http://www.w3.org/2000/svg" viewBox="0 0 84.75 58.16"><defs><style>.cls-1{fill:#e1251b;}</style></defs><g id="Layer_2" data-name="Layer 2"><g id="page_01" data-name="page 01"><g id="footer"><g id="Layer_45" data-name="Layer 45"><path class="cls-1" d="M84.53,35.35l-4.29-6.56a10.23,10.23,0,0,0-8.61-4.63H60.54V17.77a7.08,7.08,0,0,0-7.07-7.07H32.7A13.18,13.18,0,1,0,12.45,24.16H1.35a1.35,1.35,0,1,0,0,2.69H14.8v2.69H9.42a1.35,1.35,0,1,0,0,2.69H14.8v2.69H1.35a1.35,1.35,0,1,0,0,2.69H14.8v6a6.76,6.76,0,0,0-4,6.17v1.32a1.35,1.35,0,0,0,1.35,1.35H24a7.43,7.43,0,0,0,14.48,0H64.4a7.43,7.43,0,0,0,14.48,0h4.53a1.34,1.34,0,0,0,1.34-1.35v-15A1.31,1.31,0,0,0,84.53,35.35ZM9.26,13.19a10.5,10.5,0,1,1,10.5,10.49A10.51,10.51,0,0,1,9.26,13.19Zm8.23,24.42h2.69a1.35,1.35,0,0,0,0-2.69H17.49V32.23h9.42a1.35,1.35,0,0,0,0-2.69H17.49V26.85H35a1.35,1.35,0,0,0,0-2.69H27.06a13.18,13.18,0,0,0,5.87-10.77H53.47a4.39,4.39,0,0,1,4.38,4.38V43H17.49ZM57.85,49.72H38.64a7.44,7.44,0,0,0-1.91-4H57.85Zm-40.34-4h8.32a7.44,7.44,0,0,0-1.91,4H13.45A4.07,4.07,0,0,1,17.51,45.68Zm13.77,9.79A4.75,4.75,0,1,1,36,50.73,4.75,4.75,0,0,1,31.28,55.47Zm40.36,0a4.75,4.75,0,1,1,4.74-4.74A4.75,4.75,0,0,1,71.64,55.47Zm10.42-5.75H79a7.43,7.43,0,0,0-14.72,0H60.54V26.85H71.63A7.54,7.54,0,0,1,78,30.26l4.07,6.23Z"/><path class="cls-1" d="M73.84,50.73a2.2,2.2,0,1,1-2.2-2.2A2.21,2.21,0,0,1,73.84,50.73Z"/><path class="cls-1" d="M33.48,50.73a2.2,2.2,0,1,1-2.2-2.2A2.21,2.21,0,0,1,33.48,50.73Z"/><path class="cls-1" d="M21.52,13.19V7.3a1.35,1.35,0,0,0-2.69,0v5.45l-2.74,3.76a1.34,1.34,0,0,0,.29,1.88,1.31,1.31,0,0,0,.79.26,1.34,1.34,0,0,0,1.09-.55l3-4.12A1.4,1.4,0,0,0,21.52,13.19Z"/><path class="cls-1" d="M71.18,28.19H68.61a1.36,1.36,0,0,0-1.35,1.35V39a1.35,1.35,0,0,0,1.35,1.34h9a2.34,2.34,0,0,0,2-1.16,2.31,2.31,0,0,0,0-2.33l-3.14-5.5A6.2,6.2,0,0,0,71.18,28.19ZM70,37.61V30.88h1.22a3.52,3.52,0,0,1,3,1.76l2.83,5Z"/></g></g></g></g></svg>