<svg xmlns="http://www.w3.org/2000/svg" viewBox="0 0 14.55 17.91"><defs><style>.cls-1{fill:#ef4680;}</style></defs><g id="Layer_2" data-name="Layer 2"><g id="Layer_22" data-name="Layer 22"><path class="cls-1" d="M9.38,4.11h0S9.39,4.07,9.38,4.11Z"/><path class="cls-1" d="M4.33,4.11h0S4.33,4.11,4.33,4.11Z"/><path class="cls-1" d="M14.43,5.4A.82.82,0,0,0,13.91,5l-1.13-.26.52-.14A.83.83,0,1,0,12.86,3l-2.45.69a.73.73,0,0,0-.26-.29A10.4,10.4,0,0,0,11.36.26.26.26,0,0,0,11,0,13.43,13.43,0,0,1,8.28.28,16.36,16.36,0,0,1,5.51,0,.26.26,0,0,0,5.23.4a2.66,2.66,0,0,1,.34.91A5.45,5.45,0,0,1,3,.87a.27.27,0,0,0-.38.28,5.71,5.71,0,0,0,1.12,2.7h0A.83.83,0,0,0,3.66,5.5,11.21,11.21,0,0,1,2.5,7,8.17,8.17,0,0,0,.12,11.11a6.23,6.23,0,0,0,0,2.55,4.72,4.72,0,0,0,1,1.95,6,6,0,0,0,2.56,1.74,9,9,0,0,0,3.2.56,9,9,0,0,0,3.19-.56,5.89,5.89,0,0,0,2.56-1.74,4.72,4.72,0,0,0,1-1.95,6.06,6.06,0,0,0,0-2.55A8.23,8.23,0,0,0,11.24,7c-.32-.36-.63-.7-.88-1l3.18.73a.83.83,0,0,0,.89-1.25ZM8.27.81A12.85,12.85,0,0,0,10.78.59a13.49,13.49,0,0,1-1.16,2.7.83.83,0,0,0-.72.56H8.17l-.06-.12a6.23,6.23,0,0,1-.7-2.34.27.27,0,0,0-.31-.26c-.31.06-.65.11-1,.15A2.93,2.93,0,0,0,5.92.62,18.17,18.17,0,0,0,8.27.81ZM10,4.11V5.24a.3.3,0,1,1-.59,0V4.11a.3.3,0,1,1,.59,0ZM3.28,1.54a6.58,6.58,0,0,0,2.35.3l.52,0q.38,0,.75-.09a7.28,7.28,0,0,0,.68,2.14H4.45s0,0,0,0A5,5,0,0,1,3.28,1.54Zm7.56,5.77a7.83,7.83,0,0,1,2.25,3.9,4.74,4.74,0,0,1-.87,4.07,7,7,0,0,1-5.35,2.1,7,7,0,0,1-5.35-2.1,4.74,4.74,0,0,1-.88-4.07,7.9,7.9,0,0,1,2.25-3.9A8.72,8.72,0,0,0,4.26,5.5H4.9A.26.26,0,1,0,4.9,5H3.77a.3.3,0,0,1-.3-.3.29.29,0,0,1,.3-.3H8.86V5H6.16a.26.26,0,0,0,0,.52H8.9a.83.83,0,0,0,.79.57h.12A11.54,11.54,0,0,0,10.84,7.31Zm-.33-3.07L13,3.54a.3.3,0,0,1,.16.58l-1.42.39,0,0-1.2-.28ZM14,5.91a.3.3,0,0,1-.36.22L10.5,5.41a1,1,0,0,0,0-.17V4.8l3.28.75A.3.3,0,0,1,14,5.91Z"/><path class="cls-1" d="M8.56,10.86a.69.69,0,0,0,.69-.69V9.75a2,2,0,0,0-1.7-1.94V7.35a.68.68,0,0,0-.68-.68.69.69,0,0,0-.69.68v.5a2.17,2.17,0,0,0,.48,4.28h.42a.79.79,0,1,1,0,1.58H6.44a.58.58,0,0,1-.58-.58.69.69,0,0,0-1.37,0,2,2,0,0,0,1.69,1.94v.46a.69.69,0,0,0,.69.69.68.68,0,0,0,.68-.69V15a2.16,2.16,0,0,0,1.7-2.11,2.18,2.18,0,0,0-2.17-2.17H6.66a.79.79,0,1,1,0-1.58h.63a.58.58,0,0,1,.58.58v.42A.69.69,0,0,0,8.56,10.86ZM7.29,8.64H6.66a1.32,1.32,0,1,0,0,2.64h.42a1.64,1.64,0,0,1,.18,3.27.26.26,0,0,0-.23.26v.72a.16.16,0,0,1-.16.16.16.16,0,0,1-.16-.16v-.71a.27.27,0,0,0-.27-.26A1.43,1.43,0,0,1,5,13.13a.16.16,0,1,1,.31,0,1.11,1.11,0,0,0,1.11,1.11h.64a1.32,1.32,0,0,0,0-2.64H6.66a1.64,1.64,0,0,1-.19-3.27.25.25,0,0,0,.24-.26V7.35a.16.16,0,0,1,.16-.15A.16.16,0,0,1,7,7.35v.71a.25.25,0,0,0,.26.26A1.43,1.43,0,0,1,8.72,9.75v.42a.16.16,0,0,1-.32,0V9.75A1.11,1.11,0,0,0,7.29,8.64Z"/></g></g></svg>