<svg xmlns="http://www.w3.org/2000/svg" viewBox="0 0 227.86 76.33"><defs><style>.cls-1{fill:#fff;}</style></defs><g id="Layer_2" data-name="Layer 2"><g id="page_01" data-name="page 01"><g id="header"><g id="Layer_37" data-name="Layer 37"><path class="cls-1" d="M216.58,76.33H11.29A11.3,11.3,0,0,1,0,65V11.29A11.3,11.3,0,0,1,11.29,0H216.58a11.29,11.29,0,0,1,11.28,11.29V65A11.29,11.29,0,0,1,216.58,76.33ZM11.29,2.67a8.62,8.62,0,0,0-8.62,8.62V65a8.63,8.63,0,0,0,8.62,8.63H216.58A8.64,8.64,0,0,0,225.2,65V11.29a8.63,8.63,0,0,0-8.62-8.62Z"/><path class="cls-1" d="M75.72,22.28H74.21a10.65,10.65,0,0,0-.43-1.77H71.59a9.67,9.67,0,0,0-.44,1.77H69.72q0-.18,1.11-3a24.26,24.26,0,0,0,1.1-3.13h1.79a25.4,25.4,0,0,0,1,3.09A26.51,26.51,0,0,1,75.72,22.28Zm-2.18-2.67A27.12,27.12,0,0,1,72.73,17h-.08q0,.18-.84,2.64Z"/><path class="cls-1" d="M81.82,22.28H80.65a11.41,11.41,0,0,0-1.3-2.05,11.28,11.28,0,0,1-1.55-2.67h-.08a16.33,16.33,0,0,1,.12,1.87c0,.78,0,1.73.07,2.85H76.74c.05-1,.08-2.05.08-3.22s0-2.13-.08-2.94h1.41a8.68,8.68,0,0,0,1.17,2,12.17,12.17,0,0,1,1.43,2.52h.07a16.8,16.8,0,0,1-.12-1.89c0-.85,0-1.73-.06-2.63h1.18c0,.78-.07,1.76-.07,2.94S81.78,21.32,81.82,22.28Z"/><path class="cls-1" d="M88.67,19a3.44,3.44,0,0,1-.86,2.34,3,3,0,0,1-2.41,1c-.46,0-1.11,0-1.93-.06,0-1,.06-2,.06-3.22s0-2.13-.06-2.94h1.44l.52,0a3.23,3.23,0,0,1,2.48.85A3,3,0,0,1,88.67,19Zm-1.29.2a2.26,2.26,0,0,0-.53-1.53A2,2,0,0,0,85.24,17a4.41,4.41,0,0,0-.56,0c0,.63,0,1.29,0,2s0,1.5,0,2.24a3.26,3.26,0,0,0,.62.06,1.77,1.77,0,0,0,1.5-.63A2.41,2.41,0,0,0,87.38,19.19Z"/><path class="cls-1" d="M95,22.28H93.6a9.07,9.07,0,0,0-.85-2.07,1.09,1.09,0,0,0-.94-.39h-.53c0,.81,0,1.62,0,2.45H90c0-1,.06-2,.06-3.22s0-2.13-.06-2.94h1.41l.84,0c1.44,0,2.17.5,2.17,1.49a1.67,1.67,0,0,1-1.24,1.64v.07A1.49,1.49,0,0,1,94,20,16.05,16.05,0,0,1,95,22.28Zm-1.78-4.35c0-.63-.4-.94-1.21-.94a4.42,4.42,0,0,0-.78.06c0,.49,0,1.13,0,1.91h.44C92.72,19,93.22,18.63,93.22,17.93Z"/><path class="cls-1" d="M101.78,19.09a3.38,3.38,0,0,1-.89,2.4,2.9,2.9,0,0,1-2.2,1,2.75,2.75,0,0,1-2.09-.88,3.1,3.1,0,0,1-.85-2.23,3.38,3.38,0,0,1,.89-2.4,2.9,2.9,0,0,1,2.2-1,2.75,2.75,0,0,1,2.09.88A3.08,3.08,0,0,1,101.78,19.09Zm-1.31.13a2.44,2.44,0,0,0-.51-1.6A1.53,1.53,0,0,0,98.72,17a1.42,1.42,0,0,0-1.18.62,2.46,2.46,0,0,0-.48,1.56,2.42,2.42,0,0,0,.51,1.6,1.56,1.56,0,0,0,1.24.62,1.46,1.46,0,0,0,1.18-.62A2.51,2.51,0,0,0,100.47,19.22Z"/><path class="cls-1" d="M104.45,22.28h-1.34c0-1,.06-2.05.06-3.22s0-2.13-.06-2.94h1.34q-.06,1.2-.06,2.94C104.39,20.25,104.41,21.32,104.45,22.28Z"/><path class="cls-1" d="M111.31,19a3.45,3.45,0,0,1-.87,2.34,3,3,0,0,1-2.41,1c-.46,0-1.11,0-1.93-.06,0-1,.06-2,.06-3.22s0-2.13-.06-2.94h1.44l.52,0a3.23,3.23,0,0,1,2.48.85A3,3,0,0,1,111.31,19Zm-1.3.2a2.26,2.26,0,0,0-.53-1.53,2,2,0,0,0-1.61-.62,4.41,4.41,0,0,0-.56,0c0,.63,0,1.29,0,2s0,1.5,0,2.24a3.26,3.26,0,0,0,.62.06,1.77,1.77,0,0,0,1.5-.63A2.41,2.41,0,0,0,110,19.19Z"/><path class="cls-1" d="M120.4,22.28h-1.51a10.65,10.65,0,0,0-.43-1.77h-2.19a8.83,8.83,0,0,0-.44,1.77H114.4q0-.18,1.11-3a24.26,24.26,0,0,0,1.1-3.13h1.79a25.4,25.4,0,0,0,1,3.09A26.51,26.51,0,0,1,120.4,22.28Zm-2.19-2.67c-.53-1.63-.8-2.51-.8-2.64h-.08q0,.18-.84,2.64Z"/><path class="cls-1" d="M125.92,17.73a1.84,1.84,0,0,1-.84,1.67,3.74,3.74,0,0,1-2.06.54h-.32c0,.6,0,1.38,0,2.35h-1.33c0-.91.06-2,.06-3.22s0-2.12-.06-2.94h1.5l.86,0a2.74,2.74,0,0,1,1.52.41A1.38,1.38,0,0,1,125.92,17.73ZM124.7,18c0-.67-.45-1-1.35-1a4.6,4.6,0,0,0-.71.07c0,.6.06,1.27.06,2H123C124.12,19.09,124.7,18.72,124.7,18Z"/><path class="cls-1" d="M131.59,17.73a1.84,1.84,0,0,1-.84,1.67,3.74,3.74,0,0,1-2.06.54h-.32c0,.6,0,1.38,0,2.35H127.1c0-.91.06-2,.06-3.22s0-2.12-.06-2.94h1.49l.86,0a2.71,2.71,0,0,1,1.52.41A1.38,1.38,0,0,1,131.59,17.73Zm-1.22.26c0-.67-.45-1-1.34-1a4.38,4.38,0,0,0-.71.07c0,.6.05,1.27.05,2h.27C129.79,19.09,130.37,18.72,130.37,18Z"/><path class="cls-1" d="M140.86,19.09a3.33,3.33,0,0,1-.89,2.4,2.87,2.87,0,0,1-2.2,1,2.78,2.78,0,0,1-2.09-.88,3.09,3.09,0,0,1-.84-2.23,3.38,3.38,0,0,1,.89-2.4,2.88,2.88,0,0,1,2.2-1,2.76,2.76,0,0,1,2.09.88A3.07,3.07,0,0,1,140.86,19.09Zm-1.3.13a2.44,2.44,0,0,0-.51-1.6A1.55,1.55,0,0,0,137.8,17a1.42,1.42,0,0,0-1.17.62,2.46,2.46,0,0,0-.48,1.56,2.42,2.42,0,0,0,.51,1.6,1.56,1.56,0,0,0,1.24.62,1.48,1.48,0,0,0,1.18-.62A2.51,2.51,0,0,0,139.56,19.22Z"/><path class="cls-1" d="M147.27,22.28h-1.16a12.16,12.16,0,0,0-1.3-2.05,11.45,11.45,0,0,1-1.56-2.67h-.07a16.33,16.33,0,0,1,.12,1.87q0,1.17.06,2.85H142.2c.05-1,.07-2.05.07-3.22s0-2.13-.07-2.94h1.4a8.68,8.68,0,0,0,1.17,2,11.69,11.69,0,0,1,1.43,2.52h.07c-.07-.7-.11-1.33-.11-1.89,0-.85,0-1.73-.07-2.63h1.18q-.06,1.17-.06,2.94C147.21,20.24,147.23,21.32,147.27,22.28Z"/><path class="cls-1" d="M91.48,42a9.86,9.86,0,0,1-2.72,7.3,10.61,10.61,0,0,1-8,3.24A11.27,11.27,0,0,1,69.35,41.12,11.29,11.29,0,0,1,80.72,29.69a11.27,11.27,0,0,1,4.49.92,9.11,9.11,0,0,1,3.43,2.44L86.71,35a7.39,7.39,0,0,0-6-2.6,8.47,8.47,0,0,0-8.5,8.74,8.46,8.46,0,0,0,8.5,8.74,8.28,8.28,0,0,0,6.11-2.44A6.91,6.91,0,0,0,88.67,43h-8V40.36H91.33A9.55,9.55,0,0,1,91.48,42Z"/><path class="cls-1" d="M94.81,38.88a7.85,7.85,0,0,1,11.06,0,7.91,7.91,0,0,1,2.17,5.7,7.93,7.93,0,0,1-2.17,5.7,7.87,7.87,0,0,1-11.06,0,7.93,7.93,0,0,1-2.17-5.7A7.91,7.91,0,0,1,94.81,38.88ZM96.9,48.5a4.72,4.72,0,0,0,6.88,0,5.33,5.33,0,0,0,1.45-3.92,5.37,5.37,0,0,0-1.45-3.93,4.74,4.74,0,0,0-6.88,0,5.41,5.41,0,0,0-1.45,3.93A5.37,5.37,0,0,0,96.9,48.5Z"/><path class="cls-1" d="M111.16,38.88a7.86,7.86,0,0,1,11.07,0,8,8,0,0,1,2.17,5.7,8,8,0,0,1-2.17,5.7,7.88,7.88,0,0,1-11.07,0,8,8,0,0,1-2.17-5.7A8,8,0,0,1,111.16,38.88Zm2.1,9.62a4.7,4.7,0,0,0,6.87,0,5.33,5.33,0,0,0,1.45-3.92,5.37,5.37,0,0,0-1.45-3.93,4.73,4.73,0,0,0-6.87,0,5.38,5.38,0,0,0-1.46,3.93A5.34,5.34,0,0,0,113.26,48.5Z"/><path class="cls-1" d="M132.71,59.16a6.83,6.83,0,0,1-4.34-1.33,7.71,7.71,0,0,1-2.41-3l2.56-1.06a4.22,4.22,0,0,0,1.58,2,4.34,4.34,0,0,0,2.61.83,4.82,4.82,0,0,0,3.65-1.39,5.24,5.24,0,0,0,1.33-3.78V50h-.12a5.75,5.75,0,0,1-2.08,1.83,6.19,6.19,0,0,1-3,.73,6.6,6.6,0,0,1-5-2.29,8.1,8.1,0,0,1-2.11-5.68,8.13,8.13,0,0,1,2.11-5.69,6.6,6.6,0,0,1,5-2.29,6.19,6.19,0,0,1,3,.73,5.68,5.68,0,0,1,2.08,1.84h.12V37.09h2.69V51.3a7.43,7.43,0,0,1-2.23,5.85A7.84,7.84,0,0,1,132.71,59.16Zm.21-9.17a4.48,4.48,0,0,0,3.38-1.47,5.48,5.48,0,0,0,1.39-3.94,5.5,5.5,0,0,0-1.39-3.95,4.6,4.6,0,0,0-6.74,0,5.47,5.47,0,0,0-1.4,3.93,5.43,5.43,0,0,0,1.4,3.92A4.48,4.48,0,0,0,132.92,50Z"/><path class="cls-1" d="M145.85,52.06H143V30.18h2.81Z"/><path class="cls-1" d="M155.14,52.55a7.19,7.19,0,0,1-5.51-2.26,8,8,0,0,1-2.13-5.71A8.29,8.29,0,0,1,149.56,39a6.71,6.71,0,0,1,5.28-2.35,6.9,6.9,0,0,1,5.33,2.17,8.25,8.25,0,0,1,2,5.81l0,.52H150.31a5.06,5.06,0,0,0,1.52,3.57A4.56,4.56,0,0,0,155.08,50a4,4,0,0,0,4.1-2.57l2.5,1a6.76,6.76,0,0,1-2.41,2.92A7.06,7.06,0,0,1,155.14,52.55Zm4-9.78A4,4,0,0,0,158,40.33a4.18,4.18,0,0,0-3.22-1.16,4,4,0,0,0-2.71,1,5,5,0,0,0-1.57,2.62Z"/><path class="cls-1" d="M173.24,52.06h-2.82V30.18h7.46A6.94,6.94,0,0,1,182.7,32a6.36,6.36,0,0,1,0,9.32,6.9,6.9,0,0,1-4.82,1.85h-4.64Zm0-11.55h4.7a3.68,3.68,0,0,0,2.85-1.19,3.77,3.77,0,0,0,0-5.26,3.68,3.68,0,0,0-2.85-1.19h-4.7Z"/><path class="cls-1" d="M189.37,52.06h-2.81V30.18h2.81Z"/><path class="cls-1" d="M196.62,52.55a6,6,0,0,1-4-1.37A4.56,4.56,0,0,1,191,47.54a4.46,4.46,0,0,1,1.9-3.83,7.65,7.65,0,0,1,4.67-1.39,8.09,8.09,0,0,1,4.07.91V42.8a3.35,3.35,0,0,0-1.13-2.64,4.08,4.08,0,0,0-2.78-1,4.28,4.28,0,0,0-2.22.58,3,3,0,0,0-1.36,1.59l-2.57-1.1a5.8,5.8,0,0,1,2.05-2.49,6.52,6.52,0,0,1,4-1.15,6.91,6.91,0,0,1,4.76,1.68,6,6,0,0,1,1.9,4.74v9h-2.69V50h-.12A5.51,5.51,0,0,1,196.62,52.55Zm.45-2.56a4.61,4.61,0,0,0,3.17-1.3,4,4,0,0,0,1.42-3.07,5.52,5.52,0,0,0-3.58-1,4.64,4.64,0,0,0-3.08.88,2.66,2.66,0,0,0-1,2.08,2,2,0,0,0,.95,1.75A3.81,3.81,0,0,0,197.07,50Z"/><path class="cls-1" d="M210.46,58.67h-2.9L211,51.12l-6.17-14h3.06l4.46,10.76h.06l4.34-10.76h3.05Z"/><path class="cls-1" d="M16.9,40.75q0-10.49,0-21a3.18,3.18,0,0,1,.77-2.29c.24-.25.41-.32.7,0q7.05,7.2,14.13,14.38,4.57,4.65,9.17,9.29c.3.3.32.46,0,.77Q30.43,53.09,19.22,64.3a.76.76,0,0,1-1.21.07A2.85,2.85,0,0,1,16.9,62q0-6.21,0-12.42V40.75Z"/><path class="cls-1" d="M19.59,16.7a2.56,2.56,0,0,1,1.36.37L49.68,33.16c.44.24.43.38.09.72-2.14,2.1-4.27,4.23-6.39,6.35-.23.23-.37.36-.68.05Q31.29,28.62,19.84,17C19.77,16.93,19.72,16.86,19.59,16.7Z"/><path class="cls-1" d="M21.73,64.13Q32.16,53.59,42.57,43c.43-.43.63-.38,1,0,1.76,1.83,3.55,3.64,5.35,5.44.31.32.34.45-.09.68Q35.46,56.51,22.09,63.86C22,63.94,21.81,64.08,21.73,64.13Z"/><path class="cls-1" d="M61.43,41a2.17,2.17,0,0,1-1,1.75,10.48,10.48,0,0,1-1.33.81C56.44,45,53.73,46.48,51,48a.61.61,0,0,1-.88-.12c-1.91-2-3.85-3.94-5.79-5.89-.28-.28-.29-.44,0-.72q3.39-3.36,6.76-6.73a.53.53,0,0,1,.78-.11c2.67,1.51,5.34,3,8,4.5A2.45,2.45,0,0,1,61.43,41Z"/></g></g></g></g></svg>