<svg xmlns="http://www.w3.org/2000/svg" viewBox="0 0 56.04 56.04"><defs><style>.cls-1{fill:#fff;}</style></defs><g id="Layer_2" data-name="Layer 2"><g id="page_01" data-name="page 01"><g id="header"><g id="icon"><g id="Layer_34" data-name="Layer 34"><path class="cls-1" d="M28,56A28,28,0,0,1,0,28,28,28,0,0,1,28,0,28,28,0,0,1,56,28,28,28,0,0,1,28,56ZM28,2.52A25.5,25.5,0,1,0,53.52,28,25.53,25.53,0,0,0,28,2.52Z"/><path class="cls-1" d="M42.46,22.11a10.6,10.6,0,0,0-.67-3.51A7.08,7.08,0,0,0,40.11,16a7.28,7.28,0,0,0-2.56-1.67A10.8,10.8,0,0,0,34,13.69c-1.55-.07-2-.09-6-.09s-4.42,0-6,.08a10.57,10.57,0,0,0-3.51.68A7.18,7.18,0,0,0,16,16a7.32,7.32,0,0,0-1.67,2.57,10.8,10.8,0,0,0-.67,3.51c-.07,1.55-.09,2-.09,6s0,4.43.08,6a10.58,10.58,0,0,0,.68,3.52A7.19,7.19,0,0,0,16,40.13a7.05,7.05,0,0,0,2.57,1.67,10.52,10.52,0,0,0,3.51.68c1.54.06,2,.08,6,.08s4.42,0,6-.08a10.52,10.52,0,0,0,3.51-.68,7.39,7.39,0,0,0,4.24-4.23,10.93,10.93,0,0,0,.67-3.52c.07-1.54.09-2,.09-6S42.53,23.66,42.46,22.11ZM39.85,33.94a8.2,8.2,0,0,1-.49,2.69,4.83,4.83,0,0,1-2.75,2.75,8.2,8.2,0,0,1-2.69.49c-1.53.07-2,.09-5.85.09s-4.33,0-5.85-.09a8.14,8.14,0,0,1-2.69-.49,4.76,4.76,0,0,1-2.74-2.75,7.86,7.86,0,0,1-.5-2.69c-.07-1.52-.08-2-.08-5.85s0-4.32.08-5.85a7.79,7.79,0,0,1,.5-2.68,4.5,4.5,0,0,1,1.08-1.67,4.63,4.63,0,0,1,1.67-1.08,8.2,8.2,0,0,1,2.69-.49c1.52-.07,2-.09,5.85-.09s4.32,0,5.85.09a8.12,8.12,0,0,1,2.68.49,4.74,4.74,0,0,1,2.75,2.75,8.18,8.18,0,0,1,.49,2.68c.07,1.53.09,2,.09,5.85S39.92,32.41,39.85,33.94Z"/><path class="cls-1" d="M28.06,20.64a7.44,7.44,0,1,0,7.44,7.44A7.45,7.45,0,0,0,28.06,20.64Zm0,12.27a4.83,4.83,0,1,1,4.83-4.83A4.82,4.82,0,0,1,28.06,32.91Z"/><path class="cls-1" d="M37.54,20.35a1.74,1.74,0,1,1-1.74-1.74A1.74,1.74,0,0,1,37.54,20.35Z"/></g></g></g></g></g></svg>