<svg xmlns="http://www.w3.org/2000/svg" viewBox="0 0 13.5 18"><defs><style>.cls-1{fill:#5e5c5c;}</style></defs><g id="Layer_2" data-name="Layer 2"><g id="Layer_6" data-name="Layer 6"><g id="password"><path class="cls-1" d="M11.81,18H1.69A1.69,1.69,0,0,1,0,16.31V8.44A1.69,1.69,0,0,1,1.69,6.75H11.81A1.69,1.69,0,0,1,13.5,8.44v7.87A1.69,1.69,0,0,1,11.81,18ZM1.69,7.88a.56.56,0,0,0-.56.56v7.87a.57.57,0,0,0,.56.57H11.81a.58.58,0,0,0,.57-.57V8.44a.57.57,0,0,0-.57-.56Z"/><path class="cls-1" d="M10.69,7.88a.57.57,0,0,1-.56-.57V4.5a3.38,3.38,0,0,0-6.75,0V7.31a.58.58,0,0,1-.57.57.57.57,0,0,1-.56-.57V4.5a4.5,4.5,0,0,1,9,0V7.31A.57.57,0,0,1,10.69,7.88Z"/><path class="cls-1" d="M6.75,12.75a1.5,1.5,0,1,1,1.5-1.5A1.5,1.5,0,0,1,6.75,12.75Zm0-1.87a.36.36,0,0,0-.37.37.37.37,0,0,0,.37.38.38.38,0,0,0,.38-.38A.37.37,0,0,0,6.75,10.88Z"/><path class="cls-1" d="M6.75,15a.56.56,0,0,1-.56-.56V12.38a.56.56,0,1,1,1.12,0v2.06A.56.56,0,0,1,6.75,15Z"/></g></g></g></svg>