<svg xmlns="http://www.w3.org/2000/svg" viewBox="0 0 21.66 21.66"><defs><style>.cls-1{fill:#5e5c5c;}</style></defs><g id="Layer_2" data-name="Layer 2"><g id="Layer_6" data-name="Layer 6"><g id="phone"><path class="cls-1" d="M13.71,0a.36.36,0,0,0-.36.36.36.36,0,0,0,.36.36,7.22,7.22,0,0,1,7.22,7.22.36.36,0,0,0,.36.36.37.37,0,0,0,.37-.36A8,8,0,0,0,13.71,0Z"/><path class="cls-1" d="M13.71,2.17a.36.36,0,0,0,0,.72,5.06,5.06,0,0,1,5.06,5.05.36.36,0,1,0,.72,0A5.78,5.78,0,0,0,13.71,2.17Z"/><path class="cls-1" d="M13.71,4.33a.36.36,0,0,0,0,.72A2.89,2.89,0,0,1,16.6,7.94a.36.36,0,1,0,.72,0A3.61,3.61,0,0,0,13.71,4.33Z"/><path class="cls-1" d="M19.53,13.54a13.63,13.63,0,0,1-2.88-.71,2.47,2.47,0,0,0-2.6.55l-1.14,1.14A16.52,16.52,0,0,1,7.1,8.73L8.25,7.59A2.47,2.47,0,0,0,8.8,5a13.41,13.41,0,0,1-.72-2.87A2.47,2.47,0,0,0,5.62,0H2.24A2.45,2.45,0,0,0,0,2.69,21.19,21.19,0,0,0,3.3,12a20.78,20.78,0,0,0,6.42,6.41A21.27,21.27,0,0,0,19,21.65h.23a2.47,2.47,0,0,0,2.45-2.48V16A2.47,2.47,0,0,0,19.53,13.54ZM20.93,16h0v3.16a1.73,1.73,0,0,1-1.73,1.74H19a20.67,20.67,0,0,1-8.93-3.17,20.41,20.41,0,0,1-6.21-6.2A20.5,20.5,0,0,1,.73,2.62a1.72,1.72,0,0,1,.4-1.27A1.68,1.68,0,0,1,2.31.73H5.64a1.75,1.75,0,0,1,1.73,1.5,13.87,13.87,0,0,0,.76,3,1.75,1.75,0,0,1-.4,1.83L6.4,8.41a.36.36,0,0,0-.06.44,17.26,17.26,0,0,0,6.45,6.44.36.36,0,0,0,.43-.06l1.34-1.33a1.76,1.76,0,0,1,1.84-.4,13.87,13.87,0,0,0,3,.76A1.74,1.74,0,0,1,20.93,16Z"/><path class="cls-1" d="M5.41,1.44h-3a1,1,0,0,0-.69.36,1,1,0,0,0-.23.73,20.2,20.2,0,0,0,.73,3.7.36.36,0,0,0,.35.26l.1,0A.36.36,0,0,0,2.87,6a20.4,20.4,0,0,1-.71-3.56.44.44,0,0,1,.07-.2.35.35,0,0,1,.23-.1h3a.37.37,0,0,0,0-.73Z"/><path class="cls-1" d="M19.85,15.88a.36.36,0,0,0-.36.36v3a.29.29,0,0,1-.09.21.27.27,0,0,1-.2.09h0a19.08,19.08,0,0,1-3.55-.71.37.37,0,0,0-.45.25.36.36,0,0,0,.25.44,20.39,20.39,0,0,0,3.67.74h.1a1,1,0,0,0,.72-.3,1,1,0,0,0,.3-.73V16.24A.36.36,0,0,0,19.85,15.88Z"/></g></g></g></svg>