<svg xmlns="http://www.w3.org/2000/svg" viewBox="0 0 56.04 56.04"><defs><style>.cls-1{fill:#fff;}</style></defs><g id="Layer_2" data-name="Layer 2"><g id="page_01" data-name="page 01"><g id="header"><g id="icon"><g id="Layer_34" data-name="Layer 34"><path class="cls-1" d="M28,56A28,28,0,0,1,0,28,28,28,0,0,1,28,0,28,28,0,0,1,56,28,28,28,0,0,1,28,56ZM28,2.52A25.5,25.5,0,1,0,53.52,28,25.53,25.53,0,0,0,28,2.52Z"/><path class="cls-1" d="M15.5,38.74c.38,1.67.79,2.37,3,2a6.93,6.93,0,0,1,2.42-.08c1.64.27,5.95,5.77,12.09.92,1.19-.84,1.85-1.3,4.17-.85,1,.2,2.32,0,2.95-2,6.07-1.09,4.76-4.44,3-4.73a7.77,7.77,0,0,1-5.48-4.81,6.54,6.54,0,0,1,1-.42C43.73,27,40.88,22.7,37.4,24c.23-3.63.29-6.54-2.68-9.33-3.16-3-8-3.1-11.23-1.7-5.55,2.43-5.51,7.14-5.26,11.09-2.22-.85-3.72.37-4,1.62-.37,2,1.52,2.63,2.64,3,.39.14,1.05.37,1.15.44a7.44,7.44,0,0,1-5,4.66c-.8.26-1.55.51-1.88,1.24a1.8,1.8,0,0,0,.05,1.45c.57,1.31,2.4,1.87,4.27,2.21Zm4.35-8.41c.93-1.86-.28-2.87-2.24-3.56-.42-.15-1.18-.42-1.29-.67a.8.8,0,0,1,.58-.26,3,3,0,0,1,.46.15c6.63,2.51-1.19-7.51,7-11.07,2.5-1.1,6.49-1,9,1.3,4,3.71.84,9.13,2.56,9.91,1.22.56,2.39-.3,2.81-.31a.86.86,0,0,1,.64.27c0,.24-.86.54-1.37.72-2.39.83-3.14,1.82-1.79,4.28a10.1,10.1,0,0,0,6,4.87c-2,1.16-3.52.14-4,1.89-.23.93-.37.9-.63.85-7.07-1.39-6.59,6-13.79,1.16-2.45-1.64-2.93-1.47-6.12-1.1a7.87,7.87,0,0,0-.41-1.44c-.5-.93-2.37-.46-3.83-1.4,2.93-1,4.92-2.18,6.43-5.59Z"/></g></g></g></g></g></svg>