<svg xmlns="http://www.w3.org/2000/svg" viewBox="0 0 56.04 56.04"><defs><style>.cls-1{fill:#fff;}</style></defs><g id="Layer_2" data-name="Layer 2"><g id="page_01" data-name="page 01"><g id="header"><g id="icon"><g id="Layer_34" data-name="Layer 34"><path class="cls-1" d="M28,56A28,28,0,0,1,0,28,28,28,0,0,1,28,0,28,28,0,0,1,56,28,28,28,0,0,1,28,56ZM28,2.52A25.5,25.5,0,1,0,53.52,28,25.53,25.53,0,0,0,28,2.52Z"/><path class="cls-1" d="M40.48,16.1a2,2,0,0,0-1.58-.71,3,3,0,0,0-1.11.22l-26,9.92c-1.38.53-1.57,1.32-1.55,1.75s.24,1.2,1.65,1.65h0l5.4,1.54,2.92,8.34a2.51,2.51,0,0,0,2.33,1.85,2.75,2.75,0,0,0,1.86-.8l3.34-3.07,4.84,3.9h0l0,0h0a2.84,2.84,0,0,0,1.7.63h0a2.38,2.38,0,0,0,2.27-2.11l4.26-21A2.49,2.49,0,0,0,40.48,16.1ZM19.1,30.19l10.41-5.32L23,31.76a.88.88,0,0,0-.22.4l-1.25,5.06Zm4.09,8.36-.13.11L24.22,34l2.11,1.7ZM39.12,17.87l-4.26,21c0,.2-.17.67-.51.67a1.05,1.05,0,0,1-.59-.25l-5.49-4.42h0L25,32.28l9.37-10a.9.9,0,0,0-1.06-1.42L17.9,28.78l-5.47-1.57,26-9.92a1.21,1.21,0,0,1,.47-.1c.05,0,.15,0,.19,0A.88.88,0,0,1,39.12,17.87Z"/></g></g></g></g></g></svg>