<svg xmlns="http://www.w3.org/2000/svg" viewBox="0 0 56.04 56.04"><defs><style>.cls-1{fill:#fff;}</style></defs><g id="Layer_2" data-name="Layer 2"><g id="page_01" data-name="page 01"><g id="header"><g id="icon"><g id="Layer_34" data-name="Layer 34"><path class="cls-1" d="M28,56A28,28,0,0,1,0,28,28,28,0,0,1,28,0,28,28,0,0,1,56,28,28,28,0,0,1,28,56ZM28,2.52A25.5,25.5,0,1,0,53.52,28,25.53,25.53,0,0,0,28,2.52Z"/><path class="cls-1" d="M25,40.78c-4.85,0-8.69-.84-10.52-2.32l0,0,0,0A1.48,1.48,0,0,1,14,36.83v0a1.54,1.54,0,0,1,1.39-1,12.45,12.45,0,0,0,3.32-.45,6.28,6.28,0,0,1-3.32-3.83A1.37,1.37,0,0,1,15.86,30a1.65,1.65,0,0,1,.42-.21,9,9,0,0,1-1.88-3.37V26.3A1.42,1.42,0,0,1,15,24.78a1.36,1.36,0,0,1,.67-.19A7.13,7.13,0,0,1,15.17,23a6.8,6.8,0,0,1,.73-4.55l.18-.36a1,1,0,0,1,.73-.55,1.05,1.05,0,0,1,.88.28l.33.33A15.42,15.42,0,0,0,27,23a7.18,7.18,0,0,1,1.92-4.11,6.77,6.77,0,0,1,4.82-2.12h0a9.6,9.6,0,0,1,4,1.3c.86-.28,1.89-.72,3-1.18a1.38,1.38,0,0,1,1.52.27,1.35,1.35,0,0,1,.29,1.46c-.08.22-.17.43-.27.64a1.56,1.56,0,0,1,.4.27A1.47,1.47,0,0,1,43,20.9v0A5.55,5.55,0,0,1,40.69,24C40.52,33.3,33.54,40.78,25,40.78Zm-8.89-3.27c1.73,1,5,1.57,8.89,1.57a13.35,13.35,0,0,0,9.88-4.49A16.11,16.11,0,0,0,39,23.66v0a1,1,0,0,1,.54-.89A3.69,3.69,0,0,0,41.1,21a1,1,0,0,1-1-.4,1,1,0,0,1,0-1.19,6.1,6.1,0,0,0,.38-.6c-.93.39-1.81.74-2.57,1a1.11,1.11,0,0,1-.84-.09,8.23,8.23,0,0,0-3.38-1.21,5.29,5.29,0,0,0-5.1,5.37,1,1,0,0,1-1.21,1c-4.63-.92-7.38-2.29-10.24-5.16a5,5,0,0,0-.33,2.95,6.11,6.11,0,0,0,1.48,2.86,1,1,0,0,1-1,1.64,4.72,4.72,0,0,1-.93-.36,8.52,8.52,0,0,0,2.91,3.38A1,1,0,0,1,18.64,32a4.54,4.54,0,0,1-1.34-.29A4.59,4.59,0,0,0,21,34.28a1,1,0,0,1,.3,1.88A12.09,12.09,0,0,1,16.08,37.51Z"/></g></g></g></g></g></svg>