<svg xmlns="http://www.w3.org/2000/svg" viewBox="0 0 14.18 17"><defs><style>.cls-1{fill:#5e5c5c;}</style></defs><g id="Layer_2" data-name="Layer 2"><g id="Layer_6" data-name="Layer 6"><g id="first_name" data-name="first name"><path class="cls-1" d="M7,8.19A4,4,0,0,0,9.88,7a4,4,0,0,0,1.2-2.9A4,4,0,0,0,9.88,1.2,4,4,0,0,0,7,0,4,4,0,0,0,4.09,1.2a4,4,0,0,0-1.2,2.89A4,4,0,0,0,4.09,7,4,4,0,0,0,7,8.19ZM4.79,1.9A3,3,0,0,1,7,1a2.94,2.94,0,0,1,2.19.9,2.93,2.93,0,0,1,.91,2.19,2.91,2.91,0,0,1-.91,2.19A2.91,2.91,0,0,1,7,7.19a2.93,2.93,0,0,1-2.19-.91,2.94,2.94,0,0,1-.9-2.19A3,3,0,0,1,4.79,1.9Z"/><path class="cls-1" d="M14.15,13.07A9,9,0,0,0,14,12a9.52,9.52,0,0,0-.26-1.08,5,5,0,0,0-.45-1A3.47,3.47,0,0,0,12.63,9a2.92,2.92,0,0,0-1-.61,3.45,3.45,0,0,0-1.23-.22,1.23,1.23,0,0,0-.66.28l-.69.45a4.28,4.28,0,0,1-.9.4,3.82,3.82,0,0,1-1.1.17A3.87,3.87,0,0,1,6,9.34a4,4,0,0,1-.89-.4l-.7-.45a1.23,1.23,0,0,0-.66-.28,3.49,3.49,0,0,0-1.23.22,3,3,0,0,0-1,.61,3.72,3.72,0,0,0-.67.87,5.62,5.62,0,0,0-.44,1A7.74,7.74,0,0,0,.17,12c-.07.38-.11.74-.14,1.07s0,.67,0,1a2.81,2.81,0,0,0,.84,2.13A3,3,0,0,0,3,17h8.18a3,3,0,0,0,2.16-.79,2.81,2.81,0,0,0,.84-2.13C14.18,13.73,14.17,13.4,14.15,13.07Zm-1.49,2.42a2,2,0,0,1-1.48.51H3a2,2,0,0,1-1.47-.51A1.83,1.83,0,0,1,1,14.08c0-.32,0-.64,0-.94s.06-.62.12-1a7.78,7.78,0,0,1,.23-.95,4.6,4.6,0,0,1,.37-.82,2.71,2.71,0,0,1,.49-.64,1.79,1.79,0,0,1,.64-.4,2.4,2.4,0,0,1,.78-.15l.2.12.7.45a4.6,4.6,0,0,0,1.13.5,4.38,4.38,0,0,0,2.8,0,4.44,4.44,0,0,0,1.13-.5l.7-.45.2-.12a2.47,2.47,0,0,1,.79.15,1.84,1.84,0,0,1,.63.4,2.73,2.73,0,0,1,.5.64,4.54,4.54,0,0,1,.36.82,7.78,7.78,0,0,1,.23.95c.06.35.1.68.13,1h0c0,.3,0,.62,0,.94A1.86,1.86,0,0,1,12.66,15.49Z"/></g></g></g></svg>