<svg xmlns="http://www.w3.org/2000/svg" viewBox="0 0 59.42 59.42"><defs><style>.cls-1{fill:#5e5c5c;}</style></defs><g id="Layer_2" data-name="Layer 2"><g id="Layer_22" data-name="Layer 22"><path class="cls-1" d="M29.71,0A29.69,29.69,0,0,0,6.81,48.61s0,0,0,0A29.65,29.65,0,0,0,18.05,57l.15.07,1.05.41.42.16.92.31.59.18c.27.09.54.16.82.24l.73.18.74.17.84.17L25,59l.94.13.61.08,1.07.09.51,0c.52,0,1.05.05,1.59.05s1.07,0,1.6,0l.5,0c.36,0,.72-.05,1.07-.09l.61-.08.94-.13.68-.12.84-.16.74-.18.73-.18.82-.23.6-.19.91-.31.42-.16c.36-.13.71-.27,1-.41l.15-.07a29.65,29.65,0,0,0,11.22-8.37l0,0A29.7,29.7,0,0,0,29.71,0Zm12,54.69a.05.05,0,0,0,0,0l-1.08.49-.25.1c-.31.13-.63.26-1,.38l-.4.15-.86.29-.55.17-.77.22-.67.16-.7.16c-.25.06-.51.1-.77.15l-.63.11-.87.12-.56.07c-.33,0-.67.06-1,.09l-.45,0c-.49,0-1,0-1.47,0s-1,0-1.47,0l-.45,0c-.34,0-.68,0-1-.09l-.56-.07-.87-.12L24.72,57c-.26,0-.52-.09-.77-.15l-.7-.16-.66-.16-.78-.22-.54-.17-.87-.29-.4-.15c-.33-.12-.65-.25-1-.38l-.25-.1-1.07-.49,0,0a27.84,27.84,0,0,1-9-6.93,21.84,21.84,0,0,1,14.3-15l.43.24.25.14c.29.15.59.3.9.43s.47.19.71.28l.15,0a12.59,12.59,0,0,0,8.56,0l.14,0a7.69,7.69,0,0,0,.72-.28c.31-.13.61-.28.9-.43L36,33l.43-.24a21.84,21.84,0,0,1,14.3,15A28,28,0,0,1,41.75,54.69ZM18.82,21.79a10.89,10.89,0,1,1,16.82,9.13,9.65,9.65,0,0,1-1.22.67l-.14.07a11.12,11.12,0,0,1-9.14,0L25,31.59a9.65,9.65,0,0,1-1.22-.67A10.9,10.9,0,0,1,18.82,21.79Zm33.4,24.09A23.91,23.91,0,0,0,38.31,31.34a12.87,12.87,0,1,0-17.2,0A23.91,23.91,0,0,0,7.2,45.88a27.73,27.73,0,1,1,45,0Z"/></g></g></svg>